<svg width="212" height="357" viewBox="0 0 212 357" fill="none" xmlns="http://www.w3.org/2000/svg">
<rect width="212" height="357" fill="white"/>
<g clip-path="url(#clip0)">
<path d="M45.1296 310.774C45.162 310.774 45.1944 310.774 45.2268 310.774C45.2268 311.387 45.2268 312 45.2268 312.613H45.162H45.0972C45.1296 312 45.1296 311.387 45.1296 310.774Z" fill="#ADAFB1"/>
<path d="M65.2523 329.194C66.7429 327.806 68.1038 326.516 69.4648 325.226C69.6592 325.065 69.886 325.032 70.0805 324.968C75.4271 323.645 79.0887 319 79.0563 313.581C79.0239 308.161 75.3299 303.516 69.9833 302.29C66.2892 301.452 62.9516 302.29 59.9705 304.613C59.6141 304.903 59.452 304.936 59.128 304.581C58.4475 303.871 57.7022 303.194 56.9894 302.516C56.6977 302.258 56.6329 302.032 56.9894 301.806C57.5726 301.484 57.6374 301 57.5078 300.387C57.3782 299.774 57.3134 299.161 57.3134 298.548C57.281 297.645 57.6374 297.065 58.5123 296.71C59.5493 296.29 60.5862 295.839 61.6231 295.419C62.498 295.065 63.2433 295.226 63.8589 295.936C64.3126 296.484 64.7338 297.032 65.1551 297.581C65.3495 297.839 65.5439 298 65.9328 297.968C66.9049 297.871 67.877 297.871 68.8491 297.968C69.1732 298 69.3676 297.903 69.5296 297.645C69.9508 297.097 70.3721 296.548 70.7933 296.032C71.5062 295.194 72.1867 295 73.2236 295.452C74.2281 295.871 75.2327 296.258 76.2048 296.677C77.0797 297.032 77.4685 297.613 77.4037 298.548C77.3713 299.323 77.2417 300.065 77.1445 300.839C77.1121 301.129 77.1769 301.323 77.4361 301.516C78.2138 302.129 78.8943 302.806 79.5099 303.581C79.7044 303.806 79.8988 303.903 80.1904 303.839C80.9033 303.71 81.6162 303.645 82.3615 303.548C83.2688 303.452 84.0141 303.871 84.3381 304.71C84.7594 305.742 85.213 306.774 85.6343 307.806C86.0231 308.742 85.8287 309.484 85.051 310.129C84.5001 310.581 83.9493 311 83.366 311.419C83.1068 311.613 83.0096 311.806 83.042 312.161C83.1716 313.097 83.1716 314.065 83.042 315C83.0096 315.323 83.0744 315.548 83.366 315.742C83.9169 316.129 84.4677 316.581 84.9862 317C85.8287 317.677 86.0231 318.419 85.6018 319.419C85.1806 320.419 84.7594 321.452 84.3381 322.452C83.9817 323.29 83.2364 323.71 82.3615 323.613C81.7134 323.548 81.0653 323.516 80.4497 323.355C79.9636 323.258 79.6396 323.387 79.3479 323.774C78.8295 324.452 78.1814 325.065 77.5009 325.613C77.2093 325.839 77.1121 326.065 77.1769 326.419C77.2741 327 77.3389 327.581 77.4037 328.129C77.5657 329.258 77.3065 330.161 75.9455 330.645C75.0058 330.968 74.0985 331.387 73.1912 331.774C72.2515 332.161 71.5386 332 70.8582 331.194C70.4045 330.677 69.9833 330.129 69.5944 329.581C69.4 329.29 69.1732 329.194 68.8167 329.226C67.6826 329.355 66.5485 329.355 65.2523 329.194Z" fill="#ED4136"/>
<path d="M45.2268 312.613C45.2268 312 45.2268 311.387 45.2268 310.774C45.3888 309.71 45.9073 308.806 46.6526 308.097C48.9208 305.903 51.1567 303.742 53.4249 301.548C53.6518 301.323 53.7814 301.29 54.0406 301.516C56.2765 303.71 58.5447 305.871 60.7806 308.032C62.7896 309.968 62.7572 313.387 60.8454 315.258C58.7392 317.29 56.6329 319.323 54.5267 321.355C54.4619 321.419 54.3971 321.452 54.3322 321.516C54.1378 321.419 54.235 321.258 54.235 321.129C54.235 318.645 54.235 316.161 54.235 313.677C54.235 313.323 54.3322 313.161 54.6887 313C55.6284 312.548 56.0821 311.516 55.8228 310.548C55.596 309.645 54.7211 308.936 53.7814 308.936C52.8417 308.903 51.8696 309.645 51.6751 310.548C51.4483 311.548 51.8696 312.516 52.8093 313C53.1009 313.129 53.2629 313.258 53.2629 313.613C53.2305 316.161 53.2629 318.71 53.2629 321.258C53.2629 321.323 53.2629 321.419 53.2305 321.484C53.0361 321.548 52.9389 321.387 52.8417 321.29C50.8326 319.355 48.8236 317.387 46.8146 315.452C45.9721 314.677 45.3888 313.774 45.2268 312.613Z" fill="#7BC044"/>
<path d="M54.8831 323.613C56.9246 323.613 58.8688 323.613 60.813 323.613C61.1695 323.613 61.1695 323.903 61.2991 324.097C61.6879 324.677 62.336 324.935 62.9841 324.806C63.5997 324.677 64.1182 324.129 64.2154 323.548C64.3126 322.871 64.0534 322.258 63.4701 321.903C62.7573 321.452 61.7851 321.645 61.3315 322.387C61.1047 322.774 60.8454 322.871 60.4242 322.839C58.6096 322.806 56.7626 322.839 54.948 322.839C54.9156 322.613 55.0776 322.548 55.1748 322.484C56.5033 321.226 57.8643 320.032 59.1604 318.742C60.8454 317.032 63.5673 317.064 65.2199 318.806C66.6133 320.226 68.1039 321.548 69.562 322.903C69.8861 323.226 69.8537 323.355 69.5296 323.645C68.0067 325.032 66.5485 326.452 65.0255 327.871C63.2757 329.516 61.0075 329.516 59.2576 327.903C57.7995 326.581 56.3737 325.226 54.948 323.871C54.9804 323.774 54.948 323.742 54.8831 323.613Z" fill="#7BC045"/>
<path d="M108.446 302.064C109.192 301.323 109.905 300.935 110.812 301.064C111.298 301.129 111.719 301.258 112.011 301.645C112.27 302 112.432 301.903 112.691 301.677C113.113 301.323 113.566 301.064 114.15 301.064C115.446 301.032 116.094 301.548 116.288 302.806C116.483 304.064 116.288 305.355 116.353 306.645C116.353 306.903 116.353 307.129 116.353 307.387C116.353 308.548 116.353 308.548 115.186 308.548C114.798 308.548 114.7 308.452 114.7 308.064C114.733 306.613 114.927 305.129 114.733 303.677C114.603 302.742 113.923 302.387 113.048 302.71C112.659 302.871 112.465 303.097 112.497 303.548C112.529 305.032 112.497 306.516 112.529 308C112.529 308.387 112.465 308.548 112.043 308.516C110.844 308.516 110.844 308.516 110.942 307.323C111.039 306.161 111.039 305 110.974 303.839C110.909 302.871 110.456 302.452 109.613 302.581C108.933 302.677 108.641 303.032 108.673 303.71C108.673 305.161 108.706 306.613 108.738 308.064C108.738 308.452 108.641 308.548 108.252 308.548C107.021 308.548 107.021 308.581 107.086 307.323C107.183 305.516 107.248 303.677 106.924 301.871C106.859 301.516 106.891 301.258 107.345 301.29C107.41 301.29 107.507 301.258 107.604 301.258C108.09 301.161 108.673 300.968 108.446 302.064Z" fill="#0D5B9F"/>
<path d="M99.2438 298.613C99.2762 298.935 99.1142 299.097 98.9846 299.29C98.2717 300.387 97.5589 301.484 96.684 302.452C96.4895 302.677 96.4571 302.806 96.684 303.032C97.9477 304.548 98.7578 306.355 99.6003 308.129C99.7623 308.452 99.6651 308.548 99.3087 308.548C97.8181 308.613 97.8181 308.613 97.2024 307.29C96.846 306.548 96.4571 305.806 96.0683 305.097C95.9063 304.806 95.6794 304.516 95.4526 304.226C95.3554 304.097 95.1934 303.903 94.999 303.968C94.7397 304.032 94.8369 304.29 94.8693 304.452C94.8693 305.645 94.9017 306.839 94.9342 308.065C94.9666 308.484 94.8369 308.581 94.4157 308.581C93.1843 308.581 93.1519 308.581 93.1843 307.387C93.2168 304.645 93.2492 301.935 93.1519 299.194C93.1519 298.742 93.2492 298.645 93.7028 298.645C94.9342 298.677 94.9341 298.645 94.9017 299.903C94.8693 300.645 94.8693 301.387 94.8693 302.129C94.8693 302.29 94.7721 302.516 94.9666 302.581C95.1934 302.677 95.2906 302.419 95.3878 302.29C96.1007 301.323 96.7488 300.29 97.2348 299.226C97.4616 298.774 97.7209 298.645 98.1745 298.677C98.4986 298.645 98.855 298.613 99.2438 298.613Z" fill="#0F5CA0"/>
<path d="M125.782 313.806C125.782 312.806 125.815 311.774 125.782 310.742C125.782 310.387 125.847 310.29 126.204 310.258C127.5 310.194 127.5 310.194 127.467 311.484C127.435 314.484 127.37 317.484 127.565 320.484C127.597 320.903 127.435 321 127.046 321.032C126.139 321.097 126.139 321.097 125.945 320.548C125.815 320.645 125.685 320.742 125.556 320.839C124.422 321.581 123.028 321.29 122.283 320.161C121.246 318.581 121.408 315.839 122.639 314.387C123.385 313.484 124.357 313.29 125.782 313.806ZM125.977 317.355H125.945C125.945 316.871 125.945 316.355 125.945 315.871C125.912 315.194 125.718 314.968 125.037 314.903C124.389 314.839 123.903 315.129 123.644 315.71C123.255 316.548 123.158 317.452 123.385 318.355C123.482 318.742 123.611 319.097 123.871 319.419C124.26 319.839 124.843 319.935 125.491 319.71C126.009 319.516 126.042 319.129 126.009 318.645C125.977 318.194 125.977 317.774 125.977 317.355Z" fill="#0E5B9F"/>
<path d="M93.1519 316.064C93.1519 314.581 93.1519 313.129 93.1519 311.645C93.1519 311.226 93.2167 311.064 93.6704 311.064C94.5129 311.097 95.323 311.032 96.1655 311.032C97.6236 311.032 98.6282 311.677 98.9522 312.774C99.3734 314.161 98.855 315.806 97.7533 316.548C97.0404 317.032 96.2303 317.29 95.3554 317.258C94.9017 317.226 94.8045 317.387 94.8045 317.806C94.8693 318.742 94.8369 319.677 94.9017 320.581C94.9017 320.903 94.8369 321 94.4805 321.032C93.1195 321.097 93.1519 321.097 93.1519 319.806C93.1519 318.548 93.1519 317.29 93.1519 316.064ZM95.6794 312.484C94.7721 312.484 94.7721 312.484 94.7721 313.387C94.7721 313.935 94.7721 314.452 94.8045 315C94.8045 315.935 94.8369 315.968 95.7766 315.806C95.8738 315.806 95.9386 315.774 96.0035 315.742C97.1052 315.516 97.5264 314.871 97.4292 313.774C97.332 312.903 96.7811 312.484 95.6794 312.484Z" fill="#0E5B9F"/>
<path d="M161.751 314.484C162.334 314 162.788 313.677 163.371 313.548C164.699 313.29 165.704 313.903 165.898 315.226C166.093 316.452 165.898 317.677 165.963 318.871C165.995 319.29 165.963 319.71 165.963 320.097C165.963 320.968 165.963 320.968 165.121 320.968C164.311 320.968 164.343 320.968 164.343 320.129C164.375 318.839 164.505 317.581 164.375 316.29C164.343 315.806 164.246 315.323 163.727 315.129C163.144 314.903 162.593 315.097 162.107 315.452C161.88 315.613 161.913 315.839 161.913 316.065C161.913 317.484 161.913 318.936 161.977 320.355C161.977 320.839 161.848 321 161.362 320.968C160.26 320.936 160.26 320.968 160.325 319.839C160.422 317.968 160.487 316.065 160.163 314.194C160.098 313.871 160.195 313.677 160.552 313.677C160.681 313.677 160.811 313.677 160.908 313.645C161.491 313.548 161.88 313.613 161.751 314.484Z" fill="#0F5CA0"/>
<path d="M116.223 314.484C117.033 313.742 117.844 313.355 118.816 313.581C119.723 313.774 120.177 314.258 120.339 315.161C120.533 316.194 120.339 317.226 120.403 318.258C120.436 319.032 120.436 319.839 120.436 320.613C120.436 320.903 120.371 321 120.047 321.032C118.783 321.129 118.783 321.129 118.816 319.871C118.848 318.71 118.913 317.548 118.848 316.387C118.751 315.129 117.811 314.71 116.742 315.355C116.483 315.516 116.353 315.71 116.353 316.065C116.385 317.548 116.353 319 116.418 320.484C116.418 320.935 116.288 321.032 115.867 321.032C114.733 321 114.7 321.032 114.765 319.871C114.862 318 114.927 316.097 114.603 314.226C114.538 313.839 114.7 313.742 115.024 313.742C115.154 313.742 115.284 313.742 115.381 313.71C115.964 313.516 116.256 313.71 116.223 314.484Z" fill="#0F5CA0"/>
<path d="M123.093 306.871C123.061 307.29 122.996 307.581 122.996 307.903C122.996 308.29 122.866 308.452 122.477 308.548C121.084 308.871 119.658 309.032 118.556 307.903C117.325 306.645 117.228 305.097 117.682 303.516C118.006 302.355 118.589 301.387 119.917 301.097C121.505 300.742 122.769 301.548 123.093 303.161C123.482 305.097 123.385 305.194 121.473 305.226C120.857 305.226 120.241 305.258 119.593 305.258C119.172 305.258 119.107 305.419 119.205 305.774C119.464 306.71 120.177 307.258 121.181 307.258C121.797 307.226 122.412 307.129 123.093 306.871ZM120.403 304.097C120.727 304.065 121.019 304.032 121.343 304.065C121.7 304.097 121.764 303.935 121.732 303.613C121.635 302.871 121.278 302.387 120.695 302.323C120.047 302.226 119.529 302.613 119.269 303.355C119.01 304.129 119.01 304.129 119.853 304.097C120.015 304.097 120.209 304.097 120.403 304.097Z" fill="#0F5CA0"/>
<path d="M158.51 302C159.223 301.355 159.936 300.968 160.811 301.064C161.815 301.129 162.463 301.71 162.626 302.71C162.82 303.806 162.626 304.903 162.658 306C162.69 306.71 162.69 307.452 162.69 308.161C162.69 308.452 162.593 308.548 162.301 308.548C161.038 308.613 161.038 308.613 161.07 307.387C161.103 306.226 161.135 305.064 161.07 303.903C161.005 302.677 160.098 302.226 159.029 302.839C158.705 303.032 158.575 303.258 158.575 303.645C158.607 305.097 158.575 306.548 158.607 308C158.607 308.419 158.51 308.581 158.057 308.548C156.922 308.516 156.89 308.548 156.955 307.419C157.052 305.516 157.084 303.613 156.793 301.71C156.728 301.419 156.793 301.29 157.117 301.29C157.246 301.29 157.376 301.258 157.473 301.226C158.121 301.129 158.607 301.097 158.51 302Z" fill="#0E5B9F"/>
<path d="M132.944 320.323C132.166 321 131.453 321.29 130.578 321.194C129.833 321.097 129.314 320.742 129.055 320C128.861 319.419 128.828 318.839 128.796 318.226C128.796 316.903 128.861 315.581 128.699 314.258C128.666 313.903 128.796 313.806 129.152 313.774C130.449 313.677 130.449 313.645 130.384 314.935C130.319 316.065 130.319 317.226 130.416 318.355C130.546 319.484 131.064 319.871 132.069 319.581C132.522 319.452 132.749 319.226 132.717 318.71C132.652 317.258 132.684 315.806 132.62 314.355C132.62 313.935 132.684 313.774 133.138 313.774C134.305 313.742 134.272 313.71 134.272 314.839C134.24 316.71 134.207 318.613 134.369 320.484C134.402 320.903 134.272 321.065 133.883 321.032C133.559 320.968 132.879 321.419 132.944 320.323Z" fill="#0E5B9F"/>
<path d="M105.919 304.097C105.919 304.194 105.919 304.226 105.919 304.226C105.919 305.161 105.919 305.161 105.012 305.161C104.104 305.161 103.197 305.194 102.257 305.194C101.901 305.194 101.836 305.323 101.933 305.645C102.193 306.645 102.938 307.226 103.975 307.194C104.493 307.194 105.012 307.129 105.498 306.968C105.757 306.871 105.854 306.936 105.789 307.226C105.789 307.29 105.789 307.355 105.757 307.419C105.692 308.516 105.692 308.484 104.623 308.677C100.637 309.419 99.6327 305.742 100.508 303.194C101.091 301.548 102.322 300.774 103.813 301.032C104.979 301.226 105.692 302.065 105.854 303.355C105.919 303.645 105.919 303.903 105.919 304.097ZM103.132 304.097C103.456 304.065 103.78 304.065 104.137 304.065C104.299 304.065 104.461 304.097 104.461 303.839C104.493 303.194 104.072 302.516 103.554 302.355C102.905 302.194 102.322 302.516 102.031 303.226C101.707 304.032 101.771 304.129 102.614 304.097C102.808 304.097 102.97 304.097 103.132 304.097Z" fill="#0E5B9F"/>
<path d="M141.304 306.935C141.336 306.968 141.369 307 141.369 307.032C141.369 308.516 141.336 308.516 139.846 308.742C137.545 309.032 135.99 307.742 135.828 305.452C135.763 304.355 135.925 303.323 136.508 302.355C137.221 301.226 138.29 300.806 139.619 301.097C140.623 301.323 141.336 302.226 141.466 303.484C141.628 305.194 141.628 305.194 139.943 305.194C139.262 305.194 138.582 305.226 137.901 305.226C137.513 305.226 137.448 305.387 137.545 305.71C137.804 306.71 138.55 307.258 139.619 307.226C140.137 307.226 140.721 307.065 141.304 306.935ZM138.679 304.097V304.065C139.036 304.065 139.392 304.065 139.748 304.065C139.91 304.065 140.008 304.032 140.04 303.839C140.105 303.226 139.684 302.516 139.133 302.355C138.485 302.194 137.901 302.516 137.61 303.226C137.253 304.065 137.318 304.129 138.193 304.097C138.355 304.097 138.517 304.097 138.679 304.097Z" fill="#0E5B9F"/>
<path d="M103.262 321.226C101.285 321.226 100.022 320.032 99.8271 317.903C99.7299 316.839 99.9243 315.839 100.443 314.903C101.123 313.742 102.128 313.258 103.489 313.484C104.526 313.645 105.174 314.419 105.433 315.71C105.53 316.194 105.498 316.71 105.498 317.194C105.498 317.548 105.336 317.613 105.044 317.613C104.007 317.613 102.97 317.677 101.933 317.677C101.447 317.677 101.415 317.871 101.544 318.226C101.804 319.129 102.517 319.677 103.456 319.677C103.975 319.677 104.493 319.581 104.979 319.452C105.239 319.387 105.368 319.387 105.368 319.742C105.336 320.806 105.271 320.935 104.234 321.097C103.91 321.194 103.586 321.194 103.262 321.226ZM101.447 316.548C102.225 316.548 102.97 316.548 103.748 316.548C103.91 316.548 104.007 316.516 104.04 316.323C104.137 315.806 103.748 315.065 103.294 314.871C102.711 314.645 102.095 314.871 101.771 315.419C101.544 315.774 101.447 316.161 101.447 316.548Z" fill="#0E5B9F"/>
<path d="M125.718 302.065C126.463 301.419 127.079 301.065 127.889 301.065C129.088 301.097 129.865 301.677 129.93 302.871C130.027 304.677 129.963 306.452 129.995 308.258C129.995 308.484 129.93 308.581 129.703 308.548C129.671 308.548 129.606 308.548 129.574 308.548C128.31 308.613 128.31 308.613 128.375 307.355C128.407 306.387 128.44 305.419 128.44 304.452C128.44 304.097 128.375 303.71 128.278 303.355C128.116 302.806 127.597 302.548 127.014 302.645C126.269 302.774 125.944 303.097 125.944 303.742C125.944 305.194 125.944 306.645 125.977 308.097C125.977 308.516 125.847 308.613 125.458 308.613C124.292 308.613 124.324 308.613 124.324 307.484C124.357 305.581 124.486 303.677 124.13 301.806C124.097 301.548 124.097 301.419 124.422 301.419C124.551 301.419 124.713 301.355 124.843 301.355C125.329 301.194 125.912 300.968 125.718 302.065Z" fill="#0D5B9F"/>
<path d="M157.506 320.484C157.084 320.806 156.728 321.032 156.339 321.129C154.687 321.548 153.488 320.387 153.844 318.71C154.103 317.484 155.043 316.806 156.663 316.613C156.922 316.581 157.376 316.871 157.408 316.29C157.441 315.645 157.214 315.226 156.696 315.097C155.821 314.903 154.978 315.064 154.071 315.29C154.103 314.871 154.136 314.516 154.168 314.161C154.168 313.935 154.298 313.871 154.46 313.839C155.399 313.613 156.339 313.452 157.279 313.645C158.251 313.839 158.737 314.387 158.899 315.355C158.996 316 158.964 316.677 158.931 317.323C158.867 318.419 158.899 319.516 159.061 320.613C159.093 320.968 159.029 321.064 158.705 321.064C158.543 321.064 158.381 321.064 158.219 321.097C157.765 321.161 157.538 321 157.506 320.484ZM157.408 318.613C157.408 318.387 157.408 318.161 157.408 317.935C157.408 317.774 157.376 317.645 157.182 317.645C156.631 317.71 156.08 317.71 155.659 318.097C155.27 318.419 155.205 318.871 155.335 319.355C155.464 319.806 155.853 319.871 156.274 319.871C157.182 319.839 157.441 319.548 157.408 318.613Z" fill="#0E5B9F"/>
<path d="M150.831 302.774C150.733 302.355 150.895 302 150.895 301.613C150.895 301.355 151.09 301.323 151.284 301.29C152.192 301.032 153.131 300.968 154.071 301.129C155.043 301.29 155.594 301.968 155.659 303C155.723 303.903 155.691 304.806 155.659 305.742C155.659 306.548 155.659 307.355 155.788 308.161C155.821 308.452 155.756 308.581 155.432 308.548C155.237 308.516 155.043 308.548 154.881 308.548C154.363 308.548 154.363 308.548 154.201 308.032C153.909 308.226 153.65 308.452 153.293 308.548C152.516 308.774 151.77 308.839 151.122 308.258C150.442 307.677 150.409 306.871 150.604 306.097C150.895 304.871 151.835 304.387 152.969 304.194C153.099 304.161 153.261 304.194 153.39 304.129C153.65 304 154.103 304.323 154.168 303.774C154.233 303.129 153.941 302.677 153.358 302.548C152.516 302.419 151.673 302.548 150.831 302.774ZM154.168 306.129C154.168 305.032 154.071 304.968 153.002 305.29C152.742 305.355 152.483 305.484 152.321 305.677C151.965 306.064 151.932 306.516 152.127 306.935C152.321 307.355 152.742 307.387 153.131 307.355C153.974 307.29 154.168 307.064 154.168 306.129Z" fill="#0D5B9F"/>
<path d="M135.763 319.484C136.508 319.71 137.221 319.871 137.966 319.742C138.258 319.71 138.485 319.613 138.582 319.323C138.679 319 138.55 318.774 138.323 318.548C137.901 318.161 137.318 317.968 136.832 317.645C136.087 317.194 135.666 316.581 135.666 315.677C135.698 314.484 136.443 313.645 137.642 313.516C138.226 313.452 138.809 313.484 139.392 313.581C139.781 313.645 139.846 313.806 139.813 314.161C139.684 315.129 139.684 315.129 138.809 314.968C138.452 314.903 138.128 314.871 137.772 314.935C137.48 315 137.189 315.097 137.156 315.452C137.124 315.774 137.286 316.032 137.545 316.161C138.031 316.419 138.55 316.677 139.036 316.935C139.651 317.29 140.04 317.839 140.137 318.581C140.299 320.097 139.554 321 138.031 321.161C137.383 321.226 136.735 321.194 136.119 321.097C135.666 321.032 135.568 320.806 135.666 320.419C135.666 320.129 135.698 319.806 135.763 319.484Z" fill="#0E5B9F"/>
<path d="M144.868 319.645C144.868 319.677 144.901 319.677 144.901 319.71C144.771 320.194 145.192 320.871 144.382 321.097C143.345 321.387 142.406 321.032 142.017 320.226C141.757 319.677 141.693 319.065 141.66 318.484C141.66 317.581 141.66 316.71 141.66 315.806C141.66 315.484 141.628 315.258 141.239 315.355C140.883 315.419 140.753 315.258 140.785 314.903C140.818 314.71 140.818 314.484 140.818 314.29C140.785 313.968 140.915 313.839 141.239 313.903C141.66 314 141.79 313.774 141.757 313.387C141.757 313.29 141.757 313.226 141.757 313.129C141.79 311.742 141.79 311.742 143.216 311.613C143.28 312.226 143.183 312.806 143.151 313.387C143.118 313.806 143.248 313.968 143.669 313.903C143.734 313.903 143.799 313.903 143.864 313.903C144.771 313.871 144.739 313.871 144.739 314.806C144.739 315.258 144.609 315.452 144.123 315.355C143.929 315.323 143.702 315.355 143.507 315.323C143.248 315.29 143.151 315.387 143.151 315.677C143.183 316.548 143.118 317.419 143.183 318.29C143.28 319.548 143.605 319.806 144.868 319.645Z" fill="#0F5CA0"/>
<path d="M131.842 304.71C131.842 304.323 131.842 303.936 131.842 303.516C131.874 303.097 131.874 302.71 131.259 302.839C131.032 302.871 130.967 302.742 130.999 302.548C130.999 302.29 131.032 302.065 131.032 301.806C131.032 301.484 131.129 301.355 131.453 301.419C131.907 301.516 131.972 301.29 131.972 300.903C131.939 300.613 132.004 300.323 131.972 300.032C131.874 299.419 132.134 299.194 132.749 299.161C133.495 299.129 133.495 299.065 133.462 299.839C133.43 300.226 133.43 300.581 133.397 300.968C133.333 301.355 133.495 301.484 133.883 301.452C133.948 301.452 134.013 301.452 134.078 301.452C134.985 301.387 134.953 301.387 134.985 302.323C134.985 302.839 134.823 302.936 134.337 302.903C133.397 302.839 133.365 302.871 133.365 303.806C133.365 304.645 133.3 305.516 133.462 306.355C133.624 307.129 133.883 307.355 134.661 307.258C135.115 307.194 135.115 307.387 135.115 307.71C135.05 308.613 134.953 308.71 134.045 308.742C132.846 308.774 132.198 308.226 132.004 307.032C131.81 306.226 131.842 305.452 131.842 304.71Z" fill="#0E5B9F"/>
<path d="M147.461 314.516C147.59 314.355 147.687 314.226 147.817 314.065C148.173 313.677 148.595 313.452 149.146 313.516C149.956 313.581 150.053 313.71 149.891 314.484C149.891 314.516 149.858 314.548 149.858 314.613C149.826 315.194 149.729 315.581 148.919 315.387C148.076 315.194 147.525 315.742 147.525 316.613C147.525 317.903 147.525 319.226 147.558 320.516C147.558 320.903 147.461 321 147.072 321C145.905 321 145.905 321.032 145.905 319.871C145.938 317.968 146.067 316.065 145.711 314.161C145.646 313.903 145.711 313.742 146.002 313.742C146.067 313.742 146.132 313.742 146.197 313.742C147.137 313.645 147.137 313.645 147.461 314.516Z" fill="#115DA0"/>
<path d="M144.155 302.194C144.674 301.29 145.322 300.903 146.229 301.129C146.586 301.226 146.812 301.355 146.65 301.774C146.618 301.839 146.618 301.935 146.586 302C146.521 302.323 146.553 302.71 146.359 302.935C146.164 303.161 145.808 302.839 145.516 302.839C144.771 302.806 144.22 303.355 144.22 304.194C144.22 305.484 144.22 306.742 144.285 308.032C144.285 308.452 144.188 308.548 143.767 308.548C142.6 308.548 142.632 308.548 142.665 307.387C142.73 305.516 142.827 303.613 142.47 301.774C142.406 301.452 142.503 301.29 142.827 301.323C142.892 301.323 142.956 301.29 143.021 301.29C143.961 301.097 143.961 301.097 144.155 302.194Z" fill="#0D5B9F"/>
<path d="M108.155 314.613C108.706 313.71 109.386 313.29 110.391 313.613C110.65 313.71 110.78 313.806 110.682 314.097C110.618 314.258 110.618 314.419 110.585 314.581C110.52 315.161 110.423 315.581 109.581 315.355C108.771 315.129 108.22 315.742 108.22 316.613C108.22 317.871 108.22 319.129 108.252 320.387C108.252 320.839 108.155 321 107.669 320.968C106.567 320.935 106.567 320.968 106.632 319.903C106.729 317.968 106.761 316.065 106.47 314.161C106.405 313.871 106.47 313.742 106.794 313.71C106.891 313.71 106.988 313.71 107.118 313.677C107.993 313.645 107.993 313.645 108.155 314.613Z" fill="#0D5B9F"/>
<path d="M149.308 304.903C149.308 305.968 149.308 307.065 149.308 308.129C149.308 308.452 149.243 308.548 148.886 308.548C147.623 308.581 147.623 308.581 147.655 307.355C147.687 305.484 147.752 303.645 147.525 301.774C147.493 301.452 147.558 301.355 147.914 301.323C149.308 301.129 149.275 301.129 149.275 302.484C149.275 303.29 149.275 304.097 149.308 304.903Z" fill="#125EA1"/>
<path d="M152.58 317.323C152.58 318.387 152.548 319.484 152.58 320.548C152.58 320.903 152.516 321 152.159 321C150.928 321.032 150.895 321.032 150.96 319.774C151.057 317.903 151.057 316.064 150.831 314.194C150.798 313.903 150.895 313.774 151.187 313.742C151.511 313.71 151.835 313.677 152.191 313.613C152.516 313.548 152.613 313.645 152.613 314C152.548 315.129 152.58 316.226 152.58 317.323Z" fill="#0D5B9F"/>
<path d="M113.339 317.29C113.339 318.355 113.339 319.387 113.339 320.452C113.339 320.806 113.307 321 112.853 321C111.687 321 111.687 321.032 111.719 319.871C111.752 318.032 111.816 316.194 111.59 314.355C111.525 313.903 111.654 313.774 112.108 313.742C113.372 313.613 113.339 313.613 113.307 314.871C113.275 315.677 113.307 316.484 113.307 317.29C113.307 317.29 113.339 317.29 113.339 317.29Z" fill="#0D5B9F"/>
<path d="M112.011 326.677C112.011 326.129 112.011 325.613 112.011 325.065C112.011 324.774 112.108 324.677 112.4 324.677C113.113 324.677 113.825 324.645 114.506 324.71C115.575 324.774 115.932 325.516 115.348 326.387C115.219 326.581 115.284 326.645 115.446 326.774C115.802 327.032 115.997 327.355 115.867 327.839C115.737 328.323 115.413 328.613 114.927 328.71C114.052 328.871 113.177 328.774 112.303 328.806C112.011 328.806 111.978 328.645 111.978 328.419C112.011 327.806 112.011 327.258 112.011 326.677ZM113.761 328.032C114.02 328.032 114.182 328.032 114.376 328.032C114.668 328 114.895 327.871 114.927 327.548C114.96 327.226 114.733 327.065 114.441 327.032C114.182 327 113.923 327 113.631 326.936C113.015 326.839 112.886 327.129 112.951 327.677C113.048 328.355 113.566 327.903 113.761 328.032ZM113.663 326.29C113.89 326.29 114.052 326.29 114.214 326.29C114.474 326.258 114.7 326.129 114.733 325.839C114.765 325.516 114.538 325.387 114.279 325.355C114.02 325.323 113.793 325.355 113.534 325.323C113.08 325.258 112.951 325.452 112.983 325.871C112.983 326.516 113.437 326.226 113.663 326.29Z" fill="#ABADB0"/>
<path d="M132.717 326.29C132.717 326.935 132.717 327.613 132.717 328.258C132.717 328.581 132.684 328.774 132.296 328.742C131.939 328.742 131.842 328.613 131.842 328.258C131.842 327.258 131.842 326.258 131.842 325.29C131.842 325.065 131.68 324.742 132.036 324.677C132.36 324.613 132.717 324.581 132.976 324.968C133.397 325.613 133.883 326.258 134.337 326.903C134.402 327 134.499 327.097 134.694 327.355C134.694 326.548 134.694 325.903 134.694 325.258C134.694 324.935 134.661 324.645 135.147 324.645C135.666 324.645 135.568 324.968 135.568 325.258C135.568 326.194 135.568 327.129 135.568 328.065C135.568 328.323 135.698 328.645 135.309 328.71C134.953 328.774 134.629 328.806 134.369 328.419C133.883 327.677 133.365 326.968 132.846 326.226C132.782 326.29 132.749 326.29 132.717 326.29Z" fill="#ABADB0"/>
<path d="M136.703 326.71C136.703 326.161 136.703 325.645 136.703 325.097C136.703 324.774 136.8 324.645 137.124 324.677C137.61 324.71 138.128 324.677 138.614 324.677C139.878 324.677 140.591 325.387 140.656 326.677C140.688 327.774 140.008 328.613 138.874 328.742C138.29 328.806 137.675 328.742 137.059 328.774C136.735 328.774 136.703 328.581 136.703 328.323C136.703 327.806 136.703 327.258 136.703 326.71ZM138.323 328.032C138.809 328.032 139.23 328.065 139.424 327.645C139.716 327.032 139.748 326.387 139.424 325.806C139.133 325.29 138.614 325.452 138.128 325.387C137.772 325.355 137.642 325.484 137.642 325.839C137.675 326.323 137.675 326.839 137.642 327.323C137.61 327.903 137.804 328.161 138.323 328.032Z" fill="#ADAFB1"/>
<path d="M147.785 326.226C147.785 327.032 147.785 327.677 147.785 328.323C147.785 328.613 147.72 328.774 147.363 328.774C147.007 328.774 146.877 328.645 146.91 328.323C146.942 327.323 146.91 326.355 146.91 325.355C146.91 325.129 146.748 324.806 147.104 324.71C147.461 324.645 147.785 324.645 148.044 325C148.433 325.613 148.854 326.194 149.275 326.774C149.372 326.903 149.437 327 149.664 327.258C149.664 326.452 149.664 325.839 149.664 325.226C149.664 324.935 149.632 324.677 150.085 324.677C150.506 324.677 150.539 324.903 150.539 325.226C150.539 326.161 150.539 327.129 150.539 328.065C150.539 328.29 150.701 328.645 150.312 328.742C149.956 328.839 149.599 328.774 149.34 328.387C148.984 327.806 148.53 327.226 148.109 326.677C148.076 326.548 147.979 326.452 147.785 326.226Z" fill="#ABADB0"/>
<path d="M97.2672 328.677C96.5543 328.871 96.0683 328.742 95.7118 328.161C95.5174 327.839 95.2906 327.548 95.0314 327.29C94.8045 327.032 94.4805 326.968 94.1889 327.064C93.9296 327.161 94.0592 327.452 94.0592 327.677C94.0268 327.871 94.0268 328.097 94.0592 328.29C94.0916 328.645 93.9296 328.742 93.6056 328.742C93.2168 328.742 93.1519 328.581 93.1519 328.258C93.1519 327.194 93.1844 326.161 93.1519 325.097C93.1519 324.742 93.2816 324.645 93.638 324.645C94.2537 324.677 94.8369 324.645 95.4526 324.645C96.2951 324.645 96.8136 324.968 96.9432 325.516C97.0728 326.194 96.846 326.548 95.8739 326.968C96.4895 327.419 96.8136 328.064 97.2672 328.677ZM94.9017 326.419C95.0314 326.419 95.2582 326.419 95.485 326.355C95.7766 326.29 95.9711 326.129 95.9387 325.806C95.9063 325.484 95.6794 325.419 95.4202 325.419C95.161 325.419 94.9341 325.387 94.6749 325.355C94.2537 325.29 94.0592 325.419 94.0268 325.903C93.9944 326.581 94.4481 326.387 94.9017 326.419Z" fill="#ABADB0"/>
<path d="M143.702 328.774C142.276 328.774 141.433 328 141.433 326.71C141.433 325.419 142.276 324.581 143.637 324.581C145.03 324.548 145.938 325.419 145.938 326.71C145.938 328.032 145.127 328.774 143.702 328.774ZM144.933 326.742C144.933 325.839 144.512 325.323 143.702 325.29C142.924 325.258 142.406 325.774 142.406 326.613C142.373 327.548 142.859 328.097 143.669 328.097C144.479 328.097 144.933 327.613 144.933 326.742Z" fill="#ABADB0"/>
<path d="M127.079 324.774C126.657 325.161 126.301 325.548 125.912 325.871C125.556 326.161 125.491 326.355 125.782 326.71C126.204 327.226 126.625 327.806 127.014 328.323C127.208 328.581 127.241 328.742 126.819 328.774C126.333 328.806 125.977 328.742 125.75 328.258C125.588 327.935 125.394 327.645 125.167 327.387C125.037 327.226 124.94 326.871 124.681 327C124.389 327.129 124.097 327.323 124.065 327.71C124.033 327.903 124.033 328.097 124.065 328.258C124.097 328.677 123.903 328.774 123.514 328.806C123.061 328.806 123.061 328.581 123.061 328.258C123.061 327.226 123.061 326.194 123.061 325.161C123.061 324.806 123.19 324.71 123.547 324.71C123.903 324.71 124.097 324.774 124.065 325.194C124.065 325.548 123.903 326.161 124.13 326.226C124.519 326.323 124.778 325.806 125.037 325.516C125.62 324.935 126.139 324.452 127.079 324.774Z" fill="#ABADB0"/>
<path d="M98.0125 326.677C98.0125 326.161 98.0449 325.645 98.0125 325.129C97.9801 324.774 98.1421 324.677 98.4661 324.677C99.341 324.71 100.216 324.677 101.091 324.677C101.318 324.677 101.512 324.677 101.512 325C101.512 325.29 101.382 325.419 101.091 325.419C100.54 325.419 99.9567 325.419 99.4058 325.419C99.0494 325.419 98.9846 325.581 98.9846 325.871C98.9846 326.194 99.0818 326.323 99.4058 326.29C99.8595 326.258 100.313 326.29 100.767 326.29C100.994 326.29 101.253 326.258 101.253 326.613C101.253 326.968 101.026 326.935 100.799 326.935C100.313 326.935 99.8595 326.935 99.3734 326.935C98.8874 326.903 98.9846 327.258 98.9846 327.516C98.9846 327.806 98.9846 328.065 99.3734 328.032C99.9891 328 100.572 328.032 101.188 328.032C101.415 328.032 101.609 328.065 101.609 328.355C101.609 328.645 101.48 328.774 101.188 328.774C100.248 328.774 99.3086 328.774 98.4013 328.774C98.0773 328.774 98.0125 328.645 98.0125 328.355C98.0125 327.806 98.0125 327.226 98.0125 326.677Z" fill="#ADAFB1"/>
<path d="M151.77 326.581C151.835 326.032 151.479 325.194 151.9 324.806C152.289 324.419 153.131 324.71 153.779 324.71C154.168 324.71 154.525 324.71 154.913 324.71C155.14 324.71 155.27 324.774 155.27 325.032C155.27 325.29 155.173 325.419 154.913 325.452C154.719 325.452 154.46 325.387 154.298 325.484C153.812 325.71 152.807 324.968 152.807 325.935C152.807 326.806 153.747 326.161 154.233 326.355C154.363 326.387 154.525 326.355 154.654 326.355C154.881 326.355 155.011 326.419 155.011 326.677C155.011 326.935 154.881 327 154.654 327C154.168 327 153.65 327.032 153.164 327C152.71 326.968 152.71 327.226 152.71 327.548C152.71 327.839 152.678 328.129 153.131 328.129C153.682 328.097 154.265 328.129 154.816 328.129C155.075 328.129 155.27 328.161 155.237 328.484C155.237 328.806 155.043 328.839 154.784 328.839C153.876 328.839 153.002 328.839 152.094 328.839C151.803 328.839 151.673 328.742 151.705 328.452C151.803 327.806 151.77 327.258 151.77 326.581Z" fill="#ADAFB1"/>
<path d="M157.959 328.774C157.344 328.806 156.728 328.677 156.339 328.065C156.21 327.871 155.983 327.548 156.274 327.419C156.501 327.323 156.858 327.097 157.117 327.548C157.441 328.097 158.121 328.226 158.607 327.935C158.769 327.839 158.899 327.71 158.867 327.484C158.867 327.29 158.705 327.194 158.543 327.161C158.219 327.065 157.895 327 157.571 326.903C157.311 326.839 157.052 326.742 156.825 326.645C156.469 326.484 156.242 326.194 156.242 325.774C156.21 325.323 156.469 325 156.825 324.839C157.603 324.484 158.413 324.452 159.223 324.903C159.515 325.065 159.677 325.355 159.709 325.645C159.742 325.806 159.547 325.774 159.418 325.806C159.093 325.903 158.834 325.903 158.64 325.548C158.445 325.194 157.668 325.161 157.344 325.419C157.02 325.677 157.214 325.871 157.473 325.968C157.797 326.097 158.154 326.161 158.478 326.258C159.547 326.548 160.001 327 159.871 327.677C159.774 328.355 159.126 328.742 158.121 328.774C158.089 328.774 158.057 328.774 157.959 328.774Z" fill="#ABADB0"/>
<path d="M164.732 324.677C165.088 324.613 165.25 324.742 165.412 325.064C165.866 326.097 166.352 327.129 166.838 328.161C166.903 328.323 167.162 328.581 166.903 328.677C166.644 328.806 166.125 328.935 166.028 328.548C165.704 327.419 164.829 327.839 164.116 327.774C163.792 327.742 163.727 328.032 163.63 328.226C163.533 328.387 163.565 328.677 163.306 328.71C163.047 328.742 162.723 328.839 162.528 328.645C162.399 328.516 162.625 328.258 162.69 328.097C163.144 327.097 163.598 326.097 164.019 325.097C164.148 324.742 164.343 324.613 164.732 324.677ZM164.699 325.645C164.537 326.032 164.44 326.323 164.278 326.613C164.051 327.032 164.116 327.194 164.635 327.161C165.315 327.129 165.347 327.161 165.088 326.548C164.991 326.29 164.861 326.032 164.699 325.645Z" fill="#ABADB0"/>
<path d="M110.844 326.161C110.844 326.645 110.844 327.161 110.78 327.645C110.682 328.194 110.423 328.516 109.937 328.677C109.321 328.871 108.673 328.871 108.058 328.677C107.474 328.484 107.15 328.065 107.15 327.419C107.15 326.677 107.15 325.936 107.15 325.194C107.15 324.871 107.215 324.71 107.572 324.71C107.993 324.71 108.058 324.871 108.058 325.226C108.025 325.871 108.025 326.516 108.058 327.161C108.09 327.871 108.414 328.161 109.062 328.161C109.678 328.161 109.905 327.903 109.905 327.129C109.905 326.452 109.937 325.806 109.905 325.129C109.905 324.742 110.099 324.71 110.391 324.71C110.715 324.71 110.909 324.774 110.877 325.161C110.844 325.452 110.844 325.806 110.844 326.161Z" fill="#ABADB0"/>
<path d="M102.517 326.71C102.517 326.677 102.517 326.613 102.517 326.581C102.581 325.968 102.419 325.355 102.614 324.742C103.489 324.645 104.396 324.581 105.271 324.774C105.919 324.935 106.178 325.419 106.113 326.097C106.049 326.645 105.66 327.065 105.044 327.161C104.752 327.194 104.461 327.226 104.169 327.194C103.554 327.097 103.391 327.387 103.456 327.935C103.456 328.032 103.456 328.129 103.456 328.258C103.489 328.613 103.424 328.839 102.97 328.839C102.517 328.839 102.452 328.613 102.484 328.258C102.549 327.677 102.517 327.194 102.517 326.71ZM104.202 325.419C103.813 325.387 103.456 325.355 103.489 325.935C103.521 326.355 103.554 326.613 104.072 326.548C104.526 326.484 105.076 326.581 105.109 325.968C105.141 325.355 104.623 325.419 104.202 325.419Z" fill="#ADAFB1"/>
<path d="M116.969 326.677C116.969 326.161 117.001 325.645 116.969 325.129C116.936 324.742 117.131 324.677 117.455 324.677C117.779 324.677 117.876 324.806 117.876 325.129C117.876 325.935 117.876 326.742 117.876 327.548C117.876 327.903 117.973 328.065 118.362 328.065C118.848 328.032 119.367 328.065 119.853 328.065C120.079 328.065 120.241 328.129 120.241 328.419C120.241 328.71 120.112 328.806 119.82 328.806C119.01 328.806 118.2 328.774 117.39 328.806C117.001 328.806 116.936 328.645 116.936 328.323C116.969 327.742 116.969 327.194 116.969 326.677Z" fill="#ABADB0"/>
<path d="M149.632 299.032C149.632 299.742 149.146 300.29 148.562 300.323C148.011 300.323 147.558 299.806 147.59 299.129C147.623 298.419 148.109 297.871 148.692 297.903C149.243 297.871 149.632 298.355 149.632 299.032Z" fill="#125EA1"/>
<path d="M150.863 311.613C150.863 310.871 151.317 310.355 151.965 310.355C152.548 310.355 152.937 310.839 152.904 311.516C152.904 312.258 152.418 312.774 151.803 312.774C151.219 312.742 150.863 312.29 150.863 311.613Z" fill="#0E5B9F"/>
<path d="M113.631 311.516C113.631 312.258 113.177 312.774 112.562 312.774C111.978 312.774 111.622 312.323 111.622 311.613C111.622 310.871 112.076 310.355 112.724 310.355C113.275 310.355 113.631 310.774 113.631 311.516Z" fill="#0E5B9F"/>
<path d="M129.801 326.71C129.801 326.161 129.833 325.645 129.801 325.097C129.768 324.71 129.995 324.677 130.287 324.677C130.643 324.677 130.708 324.806 130.708 325.129C130.708 326.194 130.708 327.258 130.708 328.355C130.708 328.677 130.611 328.806 130.287 328.806C129.963 328.806 129.801 328.71 129.801 328.355C129.833 327.774 129.801 327.258 129.801 326.71Z" fill="#A9ABAE"/>
<path d="M161.783 326.774C161.783 327.29 161.751 327.806 161.783 328.323C161.783 328.677 161.653 328.806 161.329 328.774C161.005 328.774 160.876 328.677 160.876 328.355C160.876 327.258 160.876 326.161 160.876 325.065C160.876 324.71 161.07 324.677 161.362 324.677C161.686 324.677 161.815 324.774 161.815 325.097C161.751 325.645 161.783 326.194 161.783 326.774Z" fill="#A9ABAE"/>
<path d="M121.991 326.71C121.991 327.258 121.991 327.839 121.991 328.387C121.991 328.742 121.797 328.774 121.505 328.774C121.246 328.774 121.084 328.742 121.084 328.419C121.084 327.323 121.084 326.194 121.084 325.097C121.084 324.742 121.278 324.71 121.57 324.71C121.894 324.71 122.024 324.806 121.991 325.129C121.959 325.645 121.991 326.161 121.991 326.71Z" fill="#A9ABAE"/>
<path d="M125.977 317.355C125.977 317.774 125.944 318.226 125.977 318.645C126.009 319.097 125.977 319.516 125.458 319.71C124.843 319.935 124.227 319.839 123.838 319.419C123.579 319.129 123.417 318.742 123.352 318.355C123.125 317.452 123.223 316.548 123.611 315.71C123.871 315.129 124.357 314.839 125.005 314.903C125.685 314.968 125.912 315.194 125.912 315.871C125.912 316.355 125.912 316.871 125.912 317.355C125.944 317.355 125.977 317.355 125.977 317.355Z" fill="#FAFBFC"/>
<path d="M95.6794 312.484C96.7811 312.484 97.332 312.903 97.4292 313.806C97.5588 314.903 97.1052 315.516 96.0034 315.774C95.9386 315.806 95.8414 315.806 95.7766 315.839C94.8369 315.968 94.8045 315.968 94.8045 315.032C94.8045 314.484 94.8045 313.968 94.7721 313.419C94.7721 312.484 94.7721 312.484 95.6794 312.484Z" fill="#FAFBFC"/>
<path d="M120.403 304.097C120.209 304.097 120.015 304.097 119.853 304.097C119.01 304.129 119.01 304.129 119.269 303.355C119.529 302.613 120.015 302.226 120.695 302.323C121.278 302.387 121.635 302.871 121.732 303.613C121.764 303.903 121.732 304.097 121.343 304.065C121.019 304.065 120.695 304.065 120.403 304.097Z" fill="#FAFBFC"/>
<path d="M103.132 304.097C102.97 304.097 102.808 304.097 102.646 304.097C101.771 304.129 101.739 304.032 102.063 303.226C102.355 302.516 102.938 302.194 103.586 302.355C104.104 302.484 104.526 303.194 104.493 303.839C104.461 304.097 104.331 304.064 104.169 304.064C103.813 304.064 103.456 304.064 103.132 304.097Z" fill="#FAFBFC"/>
<path d="M138.679 304.097C138.517 304.097 138.355 304.097 138.193 304.097C137.318 304.129 137.286 304.064 137.61 303.226C137.901 302.516 138.485 302.194 139.133 302.355C139.651 302.484 140.072 303.226 140.04 303.839C140.008 304.032 139.91 304.064 139.748 304.064C139.392 304.064 139.036 304.064 138.679 304.064C138.679 304.097 138.679 304.097 138.679 304.097Z" fill="#FAFBFC"/>
<path d="M101.447 316.548C101.48 316.161 101.577 315.774 101.771 315.419C102.095 314.839 102.711 314.613 103.294 314.871C103.748 315.064 104.137 315.806 104.04 316.323C104.007 316.516 103.878 316.548 103.748 316.548C102.97 316.548 102.193 316.548 101.447 316.548Z" fill="#F4F7FA"/>
<path d="M157.408 318.613C157.441 319.581 157.182 319.839 156.307 319.871C155.886 319.871 155.497 319.806 155.367 319.355C155.205 318.903 155.302 318.452 155.691 318.097C156.112 317.71 156.663 317.71 157.214 317.645C157.408 317.613 157.441 317.774 157.441 317.935C157.408 318.161 157.408 318.387 157.408 318.613Z" fill="#FAFBFC"/>
<path d="M154.168 306.129C154.168 307.064 154.006 307.29 153.164 307.387C152.742 307.419 152.354 307.387 152.159 306.968C151.965 306.516 151.997 306.064 152.354 305.71C152.548 305.516 152.775 305.387 153.034 305.323C154.071 305 154.136 305.032 154.168 306.129Z" fill="#FAFBFC"/>
<path d="M113.761 328.032C113.566 327.903 113.015 328.355 112.983 327.677C112.951 327.161 113.048 326.839 113.663 326.935C113.923 326.968 114.182 327 114.474 327.032C114.765 327.064 114.992 327.226 114.96 327.548C114.927 327.839 114.7 328 114.409 328.032C114.214 328.032 114.02 328.032 113.761 328.032Z" fill="#FAFBFC"/>
<path d="M113.663 326.29C113.437 326.226 112.983 326.516 112.951 325.871C112.951 325.452 113.08 325.258 113.501 325.323C113.761 325.355 113.988 325.323 114.247 325.355C114.506 325.387 114.733 325.516 114.7 325.839C114.668 326.129 114.474 326.258 114.182 326.29C114.052 326.29 113.89 326.29 113.663 326.29Z" fill="#FAFBFC"/>
<path d="M94.9017 326.419C94.4481 326.387 93.9944 326.581 94.0268 325.903C94.0592 325.419 94.2213 325.29 94.6749 325.355C94.9341 325.387 95.161 325.419 95.4202 325.419C95.6794 325.419 95.9062 325.484 95.9386 325.806C95.9711 326.129 95.7766 326.323 95.485 326.355C95.2582 326.419 95.0314 326.419 94.9017 326.419Z" fill="#FAFBFC"/>
<path d="M164.699 325.645C164.861 326.032 164.991 326.29 165.088 326.548C165.347 327.161 165.315 327.161 164.635 327.161C164.148 327.161 164.051 327 164.278 326.613C164.44 326.323 164.537 326.032 164.699 325.645Z" fill="#F4F7FA"/>
<path d="M104.202 325.419C104.59 325.452 105.141 325.355 105.109 325.968C105.077 326.581 104.493 326.516 104.072 326.548C103.554 326.613 103.521 326.355 103.489 325.936C103.456 325.323 103.813 325.387 104.202 325.419Z" fill="#FAFBFC"/>
</g>
<path d="M124.861 61.5259C119.96 62.1592 115.066 62.8619 110.156 63.4259C100.82 64.4402 91.4236 64.7882 82.0381 64.4669C68.6081 64.0678 55.2822 62.7318 42.2861 59.1314C37.3409 57.7433 32.4912 56.0602 28.2748 52.9803C27.3863 52.321 26.577 51.5611 25.863 50.716C23.8068 48.3041 23.6333 45.4411 25.8196 43.1507C27.5005 41.4048 29.437 39.9246 31.5629 38.7608C37.1153 35.7157 43.2144 34.1367 49.3741 32.87C64.1228 29.8249 79.0016 28.9313 94.0019 29.3043C103.21 29.4664 112.393 30.3044 121.478 31.8116C125.174 32.4536 128.835 33.2605 132.47 33.9892L134.795 29.4518C132.192 26.9966 131.585 23.6565 133.858 20.6373C134.706 19.5733 135.884 18.8207 137.206 18.4973C138.527 18.1739 139.919 18.298 141.163 18.8501C144.043 20.1168 145.128 22.7368 144.442 26.9012C145.877 27.3478 147.185 28.1266 148.261 29.1744C149.338 30.2221 150.152 31.5092 150.637 32.9308C151.13 34.3645 151.268 35.8962 151.04 37.395C150.812 38.8937 150.224 40.3149 149.327 41.5371C149.752 42.0142 150.194 42.4567 150.567 42.9339C152.788 45.6667 152.719 48.4429 150.351 51.063C147.982 53.683 144.946 55.1492 141.805 56.52C138.354 58.0486 135.238 60.2419 132.635 62.9747C126.831 68.9523 127.091 76.6129 131.09 83.111C133.893 87.6744 138.1 90.9191 142.126 94.3287C148.277 99.5341 154.619 104.531 160.432 110.092C170.052 119.136 176.591 130.97 179.128 143.928C180.718 152.065 181.055 160.397 180.126 168.636C178.875 181.06 174.623 192.993 167.737 203.408C157.824 218.723 143.479 230.653 126.614 237.608C123.334 238.979 120.072 238.9 116.724 238.519C109.44 237.817 102.373 235.654 95.9452 232.159C92.8161 230.48 90.0317 228.225 87.738 225.514C87.5088 225.205 87.212 224.953 86.8705 224.776C78.6719 221.306 72.651 215.329 67.3328 208.449C65.7104 206.349 63.8625 204.432 62.2055 202.376C60.0712 199.695 58.1799 196.858 57.7895 193.327C57.6334 191.948 57.8416 190.646 59.0909 189.787C59.6496 189.415 60.3062 189.216 60.9778 189.216C61.6495 189.216 62.306 189.415 62.8648 189.787C65.6226 191.367 67.7887 193.804 69.0332 196.728C69.8995 198.773 71.2267 200.59 72.9113 202.037C73.8667 202.878 75.049 203.418 76.3099 203.589C77.5708 203.76 78.8542 203.555 79.9993 203C83.8426 201.309 86.6969 198.42 89.2736 195.192C93.7763 189.631 97.0817 183.307 100.812 177.225C103.701 172.471 106.72 167.777 109.939 163.231C111.303 161.434 112.971 159.889 114.867 158.668C116.268 157.844 117.825 157.321 119.439 157.132C121.018 156.863 121.46 157.557 120.697 158.954C119.613 160.932 118.415 162.849 117.227 164.741C112.256 172.488 108.109 180.608 105.862 189.596C104.302 195.787 103.717 202.182 104.126 208.553C104.369 212.388 107.597 215.493 112.056 216.283C117.079 217.151 121.799 215.936 126.449 214.227C134.561 211.26 141.076 206.046 146.724 199.66C154.777 190.714 160.543 179.95 163.529 168.289C167.138 154.026 164.752 140.527 157.638 127.843C153.396 120.252 147.878 113.632 142.1 107.195C137.007 101.529 131.897 95.9163 126.961 90.0949C124.237 87.0924 122.312 83.4524 121.365 79.5106C120.064 73.3248 120.853 67.4514 124.497 62.1592C124.631 61.9556 124.753 61.7441 124.861 61.5259V61.5259ZM80.7107 33.139C75.0628 33.4773 69.4323 33.7203 63.7584 34.1801C56.4802 34.6938 49.2846 36.0386 42.3121 38.1882C39.1026 39.0581 36.0878 40.5302 33.4282 42.5261C30.1921 45.1288 30.1054 48.2 33.4802 50.6552C35.6269 52.2029 37.9771 53.4466 40.4642 54.3511C50.5019 58.0209 61.0169 59.114 71.5665 59.6693C82.8453 60.3095 94.16 59.7892 105.332 58.1163C111.232 57.2488 117.105 56.0775 122.588 53.6223C124.724 52.6799 126.718 51.4448 128.514 49.9525C130.778 48.0352 130.743 45.6146 128.696 43.4457C127.796 42.5337 126.775 41.7512 125.659 41.1206C122.031 39.1264 118.129 37.6792 114.077 36.8262C103.085 34.2061 91.9457 33.4166 80.7107 33.139Z" fill="black"/>
<path d="M49.0097 178.362C49.2682 177.492 49.59 176.642 49.9727 175.82C52.3065 171.751 54.7443 167.742 57.0347 163.674C60.505 157.479 63.4287 151.059 64.8428 144.032C65.7848 139.694 65.7996 135.206 64.8862 130.862C64.0967 127.314 61.7977 124.937 58.7525 123.254C53.0352 120.096 46.9796 120.061 41.0107 122.126C25.9063 127.331 15.4868 137.152 12.7453 153.41C8.77183 176.973 15.348 197.11 33.4195 213.099C42.5354 221.225 53.8011 226.551 65.8666 228.438C71.6073 229.383 77.4587 229.444 83.218 228.62C83.5039 228.564 83.7982 228.567 84.083 228.628C84.3678 228.689 84.6373 228.807 84.875 228.976C89.2129 233.912 94.7393 236.844 100.821 238.857C104.335 240.02 107.961 240.844 111.535 241.824C111.712 241.859 111.88 241.93 112.029 242.031C112.178 242.132 112.305 242.263 112.403 242.414C108.733 243.091 105.081 243.88 101.394 244.41C94.6349 245.368 87.7891 245.554 80.9883 244.965C67.0539 243.836 53.5314 239.692 41.3577 232.819C29.6889 226.234 19.8247 217.628 12.3115 206.462C5.37126 196.376 1.32662 184.581 0.616675 172.358C-0.0513531 160.871 0.955028 149.602 5.2495 138.852C12.8234 119.913 26.4876 107.464 46.138 101.963C58.1799 98.5885 69.4236 101.096 79.7997 107.915C87.1828 112.756 93.4466 118.898 99.7538 124.98C102.495 127.583 105.263 130.246 107.831 133.048C109.987 135.296 111.544 138.05 112.36 141.056C112.427 141.266 112.48 141.481 112.516 141.698C112.672 143.294 112.681 144.865 111.05 145.784C109.419 146.704 108.126 145.984 106.894 145.021C104.222 142.939 102.504 140.084 100.726 137.273C99.9061 135.821 98.7614 134.578 97.3811 133.641C96.0009 132.705 94.4226 132.101 92.7699 131.877C90.8125 131.702 88.8552 132.214 87.2348 133.326C83.2619 135.807 79.9795 139.251 77.6916 143.338C73.987 149.576 70.5775 155.978 66.9857 162.277C64.305 166.979 61.5374 171.673 57.1302 174.995C55.2545 176.216 53.2606 177.245 51.1786 178.067C50.4711 178.257 49.7423 178.356 49.0097 178.362V178.362Z" fill="black"/>
<path d="M187.196 225.228C186.251 226.329 185.34 227.457 184.351 228.507C184.197 228.637 184.015 228.729 183.819 228.776C183.623 228.823 183.419 228.823 183.223 228.776C182.249 228.374 181.296 227.922 180.368 227.423C178.868 226.668 177.419 225.809 175.874 225.176C174.33 224.542 173.194 224.967 172.578 226.225C171.623 228.186 171.502 229.487 172.786 230.416C173.653 231.032 174.382 231.821 175.18 232.515C177.462 234.519 177.471 234.519 180.099 233.383L175.371 238.866H174.955C176.378 237.027 175.215 235.968 174.087 234.953C171.007 232.22 167.936 229.487 164.796 226.841C163.06 225.384 162.991 225.462 161.126 226.642L160.857 226.425L165.446 221.011C165.535 221.088 165.611 221.179 165.672 221.28C164.752 223.354 164.743 223.362 166.479 224.829C167.997 226.113 169.532 227.37 171.398 228.915C171.398 227.691 171.458 226.798 171.398 225.913C171.242 224.016 171.048 222.125 170.816 220.239C170.53 217.905 170.131 217.636 167.858 218.391C172.855 213.299 176.785 207.425 180.49 201.265L184.706 203.105C184.602 203.22 184.479 203.317 184.342 203.391C179.917 202.974 177.8 205.811 176.152 209.247C176.072 209.461 176.046 209.692 176.076 209.919C176.107 210.146 176.192 210.362 176.326 210.548C178.199 211.945 180.143 213.246 182.034 214.556C184.316 212.44 184.481 211.025 182.737 207.616L188.871 211.711L188.957 212.136C185.704 210.618 184.255 212.604 182.754 215.034C184.828 216.283 186.823 217.567 188.905 218.703C189.99 219.302 190.953 218.703 191.742 217.888C194.544 214.964 195.082 211.815 193.477 208.067C193.475 207.863 193.498 207.658 193.547 207.46C194.735 208.683 195.794 209.741 196.791 210.852C196.828 210.99 196.834 211.135 196.808 211.276C196.783 211.417 196.727 211.551 196.644 211.667C193.781 215.93 190.906 220.181 188.02 224.421C187.884 224.53 187.732 224.617 187.569 224.681C187.641 224.435 187.731 224.194 187.838 223.961C188.017 223.717 188.141 223.437 188.203 223.141C188.265 222.845 188.262 222.539 188.196 222.244C188.129 221.949 188 221.671 187.817 221.43C187.634 221.189 187.402 220.99 187.135 220.846C184.481 219.013 181.806 217.205 179.11 215.424C178.113 214.765 177.072 214.183 176.031 213.585C175.675 213.317 175.257 213.144 174.816 213.084C174.375 213.024 173.926 213.078 173.512 213.24C173.097 213.403 172.732 213.669 172.45 214.014C172.168 214.358 171.979 214.769 171.901 215.207C171.615 216.181 171.489 217.195 171.528 218.209C171.606 220.447 171.823 222.677 171.979 224.898C172.137 224.924 172.298 224.924 172.456 224.898C175.163 222.634 176.534 222.469 179.666 224.03C180.611 224.508 181.531 225.045 182.511 225.453C184.099 226.113 185.678 226.321 187.092 224.881L187.196 225.228Z" fill="black"/>
<path d="M210.499 173.633L208.547 180.626C208.486 180.851 208.426 181.086 208.348 181.381C208.242 181.312 208.151 181.223 208.079 181.12C208.079 178.57 207.801 178.344 205.268 178.518C201.251 178.839 201.251 178.839 200.331 182.691C199.637 185.614 199.637 185.614 202.179 187.193C202.439 187.358 202.7 187.523 202.977 187.679C204.886 188.746 205.502 188.547 206.586 186.673C206.687 186.486 206.845 186.337 207.038 186.248C206.127 189.579 205.84 193.093 203.81 196.06C203.626 196.414 203.325 196.694 202.958 196.852C202.591 197.01 202.181 197.037 201.797 196.927C200.548 196.641 199.316 196.285 198.067 196.008C194.267 195.14 192.601 196.225 191.551 200.346C193.764 201.283 196.002 202.306 198.292 203.165C199.611 203.66 200.27 202.575 200.895 201.604L201.199 201.795L197.824 209.004C197.876 206.184 197.728 205.915 195.004 204.666C191.716 203.139 188.437 201.595 185.123 200.129C182.72 199.062 182.52 199.14 180.785 200.996C180.733 200.891 180.706 200.775 180.707 200.658C182.112 197.509 183.44 194.333 184.984 191.254C185.556 190.203 186.379 189.309 187.378 188.651C188.043 188.192 188.834 187.953 189.641 187.965C190.448 187.977 191.231 188.241 191.881 188.72C192.544 189.131 193.08 189.718 193.43 190.414C193.781 191.111 193.932 191.891 193.868 192.668C193.868 193.353 193.729 194.047 193.642 194.949C194.18 194.576 194.51 194.351 194.883 194.082C196.323 192.989 197.911 193.067 199.568 193.422C200.577 193.739 201.635 193.868 202.691 193.804C203.619 193.622 204.446 193.099 205.007 192.338C205.23 191.893 205.281 191.381 205.149 190.901C205.018 190.42 204.714 190.005 204.296 189.735C202.891 188.59 201.424 187.523 199.958 186.465C196.575 184.044 193.174 181.658 189.79 179.238C189.522 178.982 189.292 178.69 189.105 178.37C189.394 178.157 189.717 177.993 190.059 177.884C194.093 177.355 198.128 176.852 202.162 176.34C203.828 176.132 205.502 175.958 207.159 175.724C207.738 175.693 208.298 175.505 208.778 175.179C209.259 174.854 209.641 174.403 209.883 173.876C210.074 173.724 210.301 173.626 210.542 173.59V173.59L210.499 173.633ZM191.031 200.146C191.562 198.631 192.016 197.091 192.393 195.531C192.557 194.543 192.355 193.528 191.825 192.679C191.295 191.829 190.472 191.202 189.513 190.915C188.616 190.566 187.62 190.568 186.725 190.92C185.829 191.272 185.099 191.949 184.68 192.815C184.221 193.666 183.858 194.565 183.596 195.496C183.555 195.69 183.562 195.891 183.616 196.081C183.671 196.272 183.771 196.446 183.908 196.589C186.155 197.769 188.446 198.871 191.04 200.146H191.031ZM192.159 179.966L192.011 180.357L198.839 185.146L200.418 178.934L192.159 179.966Z" fill="black"/>
<path d="M86.6709 194.273C86.6709 189.822 86.48 185.371 86.7229 180.929C86.9977 176.789 87.4871 172.665 88.1891 168.575C88.5471 167.21 89.1528 165.922 89.9763 164.775C90.3957 164.155 90.962 163.649 91.6247 163.3C92.8393 162.615 93.7503 163.049 93.9064 164.411C94.067 165.993 94.1452 167.583 94.1407 169.174C94.1407 173.685 94.2101 178.205 94.1407 182.717C94.1541 183.631 93.9171 184.531 93.4553 185.319C91.4165 188.399 89.2476 191.392 87.1307 194.411L86.6709 194.273Z" fill="black"/>
<path d="M83.3828 141.75C83.3828 144.214 83.3828 146.681 83.3828 149.15C83.3828 154.633 83.4696 160.134 82.2029 165.513C81.6829 167.235 80.9729 168.893 80.086 170.458C79.7676 170.988 79.3237 171.432 78.7934 171.751C77.3619 172.731 76.3295 172.323 76.0518 170.631C75.9166 169.579 75.8644 168.517 75.8957 167.456C75.8957 162.413 75.8957 157.369 75.8957 152.326C75.8684 151.889 75.9646 151.453 76.1733 151.068C78.3769 147.875 80.6153 144.708 82.8449 141.524L83.3828 141.75Z" fill="black"/>
<path d="M209.684 136.657L210.803 143.763L210.551 143.858C210.4 143.653 210.272 143.432 210.169 143.199C210.129 143.013 210.051 142.837 209.941 142.682C209.831 142.527 209.691 142.396 209.529 142.296C209.367 142.197 209.186 142.131 208.998 142.103C208.81 142.074 208.618 142.084 208.434 142.132C203.639 142.907 198.848 143.702 194.059 144.518C192.749 144.743 192.323 145.706 192.115 146.955C190.901 142.488 191.144 137.751 189.166 133.491C190.901 135.287 190.901 135.287 193.503 134.358C195.239 133.768 196.896 133.17 198.978 132.432C197.65 131.669 196.661 131.044 195.62 130.532C194.076 129.769 192.506 129.049 190.918 128.389C188.888 127.522 188.541 127.791 188.012 129.995L185.86 123.479L186.138 123.297C188.376 127.053 192.315 128.155 195.933 129.925C195.989 129.748 196.019 129.564 196.019 129.379C195.152 126.333 196.505 124.364 199.03 122.915C199.793 122.473 200.557 122.048 201.285 121.518C202.804 120.477 203.992 119.219 203.932 117.102C204.391 118.491 204.921 119.87 205.276 121.284C205.266 121.517 205.202 121.744 205.091 121.948C204.98 122.152 204.824 122.329 204.634 122.464C203.767 123.106 202.743 123.592 201.815 124.199C200.409 125.024 199.05 125.928 197.746 126.906C197.497 127.08 197.287 127.302 197.126 127.56C196.966 127.817 196.859 128.104 196.812 128.404C196.765 128.704 196.779 129.01 196.853 129.304C196.927 129.598 197.059 129.874 197.243 130.116C198.11 131.634 199.455 132.372 200.713 132.007C201.815 131.695 202.908 131.339 204.01 131.01C205.814 130.463 207.671 129.96 206.751 127.149L207.22 127.314L209.501 134.185C208.096 131.981 206.205 133.014 204.548 133.517C200.67 134.705 196.826 136.024 193 137.369C192.691 137.498 192.411 137.689 192.178 137.93C191.945 138.171 191.763 138.456 191.643 138.769C191.523 139.082 191.467 139.416 191.48 139.751C191.493 140.086 191.573 140.415 191.716 140.718C191.944 140.993 192.23 141.215 192.554 141.365C192.879 141.515 193.233 141.59 193.59 141.585C196.141 141.386 198.691 141.047 201.225 140.718C202.96 140.457 204.695 140.076 206.43 139.72C208.868 139.191 209.042 138.991 209.684 136.657Z" fill="black"/>
<path d="M210.508 173.651C210.36 170.38 209.363 170.18 206.803 169.929C203.454 169.616 200.097 169.408 196.748 169.165C194.518 169 192.41 169 191.959 172.132L191.595 171.872C191.742 170.015 191.864 168.159 192.089 166.32C192.289 166.004 192.598 165.772 192.957 165.669C196.653 164.081 200.366 162.528 204.062 160.949C204.929 160.594 205.71 160.169 206.881 159.613C204.417 158.164 202.249 156.837 200.028 155.605C197.937 154.451 195.811 153.367 193.668 152.317C193.375 152.227 193.125 152.032 192.965 151.77C192.805 151.508 192.747 151.196 192.801 150.894C192.948 149.263 193.009 147.632 193.313 145.958C193.417 146.195 193.498 146.442 193.555 146.695C193.781 148.344 194.223 148.864 195.889 149.02C199.984 149.402 204.088 149.749 208.191 150.035C210.716 150.209 210.725 150.148 212 147.953L211.61 155.397C211.245 152.56 209.102 152.838 207.176 152.681C203.914 152.404 200.661 152.065 197.399 151.762C196.739 151.701 196.08 151.684 195.421 151.649L195.239 152.048L211.046 160.767L194.64 167.768L194.718 168.22C196.176 168.35 197.642 168.497 199.099 168.61C201.572 168.792 204.044 168.957 206.517 169.131C206.829 169.131 207.133 169.131 207.445 169.131C209.632 169.131 209.987 168.818 210.968 165.955C211.02 166.597 211.08 166.901 211.072 167.205C211.02 168.888 210.968 170.571 210.863 172.245C210.786 172.699 210.661 173.144 210.49 173.573L210.508 173.651Z" fill="black"/>
<path d="M170.201 243.906C168.769 244.774 167.372 245.78 165.863 246.57C165.595 246.616 165.32 246.602 165.057 246.53C164.795 246.458 164.552 246.33 164.344 246.153C163.312 245.329 162.384 244.366 161.403 243.481C158.618 240.965 156.328 241.147 153.708 244.21C155.096 246.032 156.484 247.923 157.95 249.745C158.241 250.145 158.678 250.414 159.166 250.492C159.654 250.57 160.153 250.451 160.553 250.161C160.688 250.07 160.844 250.015 161.006 249.999C161.168 249.984 161.332 250.01 161.481 250.075L154.897 254.855C154.834 254.756 154.787 254.648 154.758 254.534C156.345 252.686 156.415 252.244 154.957 250.196C152.702 247.021 150.411 243.872 148.017 240.774C146.438 238.71 146.282 238.727 143.766 239.568C143.869 239.358 144 239.162 144.156 238.987C146.663 237.096 149.101 235.1 151.721 233.374C152.927 232.571 154.319 232.09 155.764 231.977C156.508 231.95 157.245 232.123 157.899 232.477C158.554 232.832 159.101 233.355 159.485 233.993C159.868 234.63 160.074 235.359 160.08 236.103C160.086 236.847 159.893 237.58 159.521 238.224C159.148 238.918 158.653 239.56 158.254 240.236C158.307 240.306 158.375 240.362 158.454 240.401C160.987 239.82 162.878 240.878 164.622 242.605C166.132 244.097 167.893 244.895 170.062 243.403L170.201 243.906ZM153.318 243.689C154.463 242.714 155.555 241.677 156.588 240.583C157.067 240.034 157.398 239.371 157.548 238.658C157.698 237.945 157.663 237.206 157.447 236.51C157.23 235.814 156.839 235.185 156.311 234.683C155.782 234.182 155.134 233.823 154.428 233.643C152.832 233.209 149.223 235.005 148.711 236.506C148.683 236.607 148.675 236.713 148.689 236.817C148.702 236.922 148.736 237.022 148.789 237.113C150.255 239.256 151.73 241.382 153.318 243.689Z" fill="black"/>
<path d="M88.2238 255.705C89.3517 255.645 90.4709 255.584 91.5987 255.506C93.8891 255.341 96.1795 254.977 98.4612 255.046C101.064 255.115 102.443 256.408 102.868 258.516C103.25 260.434 102.278 262.091 100.066 263.279L98.973 263.869C99.8927 264.19 100.63 264.407 101.342 264.737C103.198 265.509 104.508 266.81 104.499 268.91C104.528 269.873 104.269 270.822 103.756 271.638C103.243 272.454 102.499 273.099 101.619 273.49C100.45 274.001 99.2038 274.315 97.932 274.419C95.121 274.696 92.2841 274.818 89.4645 275C89.2423 274.983 89.0293 274.905 88.8485 274.774C91.8937 274.306 91.4512 272.094 91.3384 270.159C91.1389 266.368 90.8439 262.576 90.5576 258.785C90.4535 257.362 90.0284 256.122 88.0937 256.182L88.2238 255.705ZM93.6809 268.979H93.785C93.8544 270.124 93.8717 271.278 94.0105 272.449C94.0506 272.916 94.2717 273.349 94.6265 273.655C96.006 274.523 99.6411 273.733 100.639 272.423C101.247 271.654 101.622 270.726 101.721 269.75C101.819 268.774 101.636 267.79 101.194 266.914C100.439 265.179 98.8776 264.737 97.1685 264.641C96.5525 264.641 95.9279 264.641 95.3119 264.641C94.0452 264.641 93.4553 265.11 93.6635 266.472C93.7305 267.306 93.7363 268.144 93.6809 268.979V268.979ZM93.5941 264.511C95.1932 264.164 96.7648 263.7 98.2963 263.123C99.0839 262.669 99.6954 261.963 100.031 261.119C100.353 260.337 100.427 259.476 100.244 258.651C100.061 257.825 99.6293 257.076 99.0077 256.503C98.223 255.967 97.3129 255.643 96.3658 255.562C95.4187 255.482 94.4668 255.647 93.6028 256.044C93.4856 256.121 93.3867 256.224 93.3133 256.344C93.2399 256.463 93.1936 256.598 93.1777 256.738C93.2558 259.167 93.4379 261.587 93.5941 264.511V264.511Z" fill="black"/>
<path d="M22.3753 240.393C22.7397 241.26 23.052 241.928 23.3036 242.622C23.989 244.505 23.963 246.318 22.436 247.758C21.7171 248.463 20.7995 248.93 19.8068 249.098C18.8142 249.266 17.794 249.125 16.8836 248.695C15.9243 248.268 15.0443 247.681 14.2809 246.96C12.0512 244.921 9.96907 242.839 7.83485 240.766C7.72402 240.632 7.62802 240.486 7.54855 240.332C7.63455 240.275 7.7326 240.24 7.83485 240.228C9.87364 241.243 10.0992 241.312 11.7563 239.699C14.6713 236.862 17.5083 233.938 20.3192 231.023C21.3863 229.912 22.3233 228.663 21.0306 226.98C21.2033 227.037 21.3669 227.119 21.5164 227.223C23.4945 229.062 25.4986 230.867 27.4072 232.775C28.1842 233.541 28.8421 234.418 29.3592 235.378C29.7488 236.058 29.914 236.843 29.8315 237.621C29.7489 238.4 29.4227 239.133 28.8994 239.716C28.4052 240.349 27.7333 240.82 26.9698 241.069C26.2063 241.318 25.3859 241.333 24.6136 241.113C23.9369 240.974 23.2863 240.696 22.3753 240.393ZM18.2457 236.87C16.6927 238.397 15.4261 239.621 14.1768 240.87C11.5741 243.473 11.5741 244.288 14.6539 246.544C15.4283 247.114 16.3764 247.398 17.3367 247.347C18.297 247.297 19.21 246.915 19.9201 246.266C21.7854 244.783 22.5228 242.796 21.4904 241.061C20.5095 239.589 19.4252 238.188 18.2457 236.87V236.87ZM27.841 235.699C27.7751 234.725 27.4401 233.788 26.8733 232.993C26.3066 232.198 25.5303 231.576 24.631 231.196C24.4793 231.168 24.3233 231.173 24.1736 231.21C24.0239 231.248 23.884 231.317 23.7634 231.413C22.2105 232.923 20.6749 234.45 19.1827 236.029C19.0813 236.185 19.0177 236.363 18.9966 236.548C18.9755 236.733 18.9976 236.921 19.0612 237.096C20.4406 237.963 21.7854 239.143 23.321 239.577C25.4118 240.184 27.815 237.92 27.841 235.699V235.699Z" fill="black"/>
<path d="M103.363 156.75C103.129 159.023 102.868 161.296 102.678 163.578C102.51 165.25 102.432 166.93 102.443 168.61C102.485 169.839 102.145 171.051 101.472 172.08C99.7365 174.796 98.0794 177.546 96.3877 180.287C96.2616 180.227 96.1471 180.145 96.0493 180.045C95.7717 173.512 96.0493 167.031 98.5913 160.897C99.137 159.742 99.8765 158.689 100.778 157.783C101.436 157.238 102.166 156.785 102.946 156.438L103.363 156.75Z" fill="black"/>
<path d="M74.0217 155.735C74.1519 161.756 74.0825 167.777 71.8702 173.503C71.2704 174.923 70.4571 176.242 69.4583 177.416C68.7638 178.051 67.977 178.578 67.1246 178.977L66.7515 178.752C66.7515 178.266 66.7515 177.772 66.7515 177.286C67.0465 173.497 67.3357 169.709 67.6191 165.921C67.6164 165.573 67.6905 165.23 67.836 164.914C69.7446 161.791 71.6793 158.694 73.614 155.579L74.0217 155.735Z" fill="black"/>
<path d="M119.179 255.228C119.207 255.357 119.227 255.487 119.239 255.619C119.225 255.739 119.199 255.859 119.161 255.974C118.948 255.857 118.747 255.717 118.563 255.558C117.682 254.522 116.512 253.774 115.202 253.409C113.893 253.044 112.504 253.079 111.214 253.51C107.128 254.647 107.909 253.97 108.499 257.701C108.742 259.21 109.098 260.703 109.367 262.221C112.134 261.961 114.381 261.292 114.719 258.048L116.116 264.936C115.249 264.147 114.381 263.054 113.366 262.672C112.351 262.29 110.963 262.585 109.306 262.585C110.043 265.396 110.564 267.834 111.379 270.176C111.57 270.723 112.707 271.209 113.435 271.252C117.487 271.478 120.194 269.578 122.337 265.344C122.337 266.845 122.337 268.337 122.337 269.838C122.287 269.97 122.206 270.089 122.1 270.182C121.994 270.276 121.867 270.343 121.729 270.376C116.585 271.4 111.44 272.389 106.235 273.404C106.242 273.269 106.274 273.136 106.33 273.013C108.525 272.042 108.759 271.912 108.317 269.543C107.501 265.205 106.478 260.867 105.454 256.53C105.168 255.974 104.703 255.531 104.135 255.272C103.668 255.123 103.21 254.946 102.764 254.742L117.582 251.793L119.213 255.315L119.179 255.228Z" fill="black"/>
<path d="M119.205 255.263C119.257 250.491 122.111 248.235 127.802 248.556L128.366 246.969L130.778 251.645L130.44 251.897C130.067 251.567 129.72 251.211 129.321 250.908C127.447 249.45 125.443 248.6 123.057 249.65C122.323 249.926 121.715 250.459 121.345 251.15C120.974 251.841 120.868 252.642 121.044 253.406C121.143 254.117 121.506 254.764 122.061 255.219C122.615 255.674 123.321 255.903 124.037 255.861C126.241 255.974 128.47 255.861 130.657 256.104C131.422 256.17 132.162 256.414 132.817 256.816C133.472 257.218 134.025 257.767 134.43 258.419C134.836 259.072 135.085 259.81 135.155 260.575C135.226 261.341 135.118 262.112 134.838 262.828C134.405 264.14 133.585 265.29 132.485 266.126C131.386 266.962 130.058 267.446 128.679 267.513C127.629 267.574 126.562 267.513 125.338 267.513L124.844 269.309L122.128 263.444L122.423 263.184C122.753 263.47 123.083 263.748 123.395 264.051C124.887 265.483 126.466 266.758 128.661 266.827C132.001 266.932 134.309 264.225 133.303 261.379C133.029 260.601 132.516 259.929 131.836 259.461C131.156 258.993 130.345 258.754 129.52 258.776C128.019 258.69 126.51 258.776 125.009 258.776C122.337 258.776 120.281 257.813 119.17 255.254L119.205 255.263Z" fill="black"/>
<path d="M37.124 263.331C39.7267 263.583 40.3774 263.331 41.4619 260.937C42.8934 257.805 44.2294 254.63 45.5828 251.463C46.4504 249.407 47.1184 247.359 44.2728 245.945L44.6719 245.72L52.7316 249.259C49.3915 249.329 49.3741 249.32 47.9947 252.478C46.5458 255.792 45.0883 259.115 43.7089 262.455C42.8413 264.502 43.3098 265.188 45.2965 266.168C48.628 267.808 51.5344 267.036 54.2932 264.919C54.5188 264.745 54.7704 264.598 55.0133 264.433L55.3083 264.641L52.1417 269.708L37.124 263.331Z" fill="black"/>
<path d="M142.759 261.718L137.137 264.667C139.48 261.917 137.918 258.95 137.684 256.148C137.346 252.183 136.747 248.244 136.296 244.297C136.305 243.879 136.369 243.465 136.487 243.065C136.918 243.176 137.331 243.351 137.71 243.585C141.397 246.761 145.067 249.971 148.737 253.129C149.205 253.536 149.7 253.918 150.151 254.335C150.672 254.903 151.339 255.317 152.08 255.529C152.821 255.742 153.607 255.746 154.35 255.54L147.279 259.28C147.258 259.179 147.258 259.076 147.279 258.976C149.179 257.241 149.188 257.015 147.279 255.167C146.325 254.248 145.353 253.354 144.364 252.408C142.508 253.415 140.703 254.361 138.951 255.384C138.792 255.507 138.664 255.665 138.577 255.846C138.49 256.026 138.445 256.225 138.447 256.425C138.571 257.568 138.768 258.701 139.037 259.818C139.48 261.665 140.157 262.047 142.013 261.605L142.716 261.466L142.759 261.718ZM137.502 246.422L137.12 246.622L138.083 254.838L143.748 251.862L137.502 246.422Z" fill="black"/>
<path d="M147.6 24.871C147.598 23.5752 148.105 22.3303 149.012 21.4051C149.92 20.4799 151.154 19.9486 152.45 19.9259C153.439 19.9017 154.413 20.1732 155.247 20.7057C156.081 21.2383 156.737 22.0075 157.131 22.915C157.525 23.8225 157.64 24.827 157.46 25.7999C157.28 26.7728 156.813 27.6699 156.121 28.3763C155.428 29.0827 154.54 29.5663 153.571 29.7652C152.602 29.9641 151.595 29.8693 150.68 29.4929C149.765 29.1164 148.983 28.4755 148.435 27.6521C147.886 26.8288 147.595 25.8604 147.6 24.871V24.871Z" fill="black"/>
<path d="M71.5665 274.133L63.7584 272.397C63.8091 272.297 63.88 272.209 63.9666 272.137C66.63 271.894 66.63 271.894 66.3871 269.135C66.257 268.487 66.1873 267.827 66.1789 267.166C66.3524 265.431 65.4154 264.98 63.9579 264.824C62.8166 264.689 61.688 264.463 60.5831 264.147C60.3822 264.057 60.1647 264.011 59.9447 264.011C59.7247 264.011 59.5073 264.058 59.3066 264.148C59.106 264.238 58.9266 264.37 58.7803 264.534C58.6339 264.698 58.5239 264.891 58.4575 265.101C58.0845 265.899 57.59 266.619 57.1562 267.409C56.2365 269.205 56.4708 269.873 58.2406 270.784C58.365 270.836 58.4763 270.915 58.5663 271.016C58.6563 271.116 58.7229 271.236 58.7612 271.365L52.5754 270.003L52.4279 269.673C54.8398 269.821 55.7594 268.094 56.7658 266.524C59.4205 262.455 62.0579 258.377 64.7127 254.309C65.0424 253.805 65.4415 253.354 65.8058 252.886L66.1962 252.938C66.4045 253.753 66.6734 254.56 66.8122 255.393C67.5497 260.061 68.235 264.728 68.9638 269.396C69.2674 271.287 69.3629 273.3 71.5665 274.133ZM64.5479 256.2L64.1488 256.096L59.6027 263.036L65.8752 264.39L64.5479 256.2Z" fill="black"/>
<path d="M35.2153 262.975L28.5697 258.308C28.7091 258.259 28.856 258.236 29.0035 258.239C31.2679 259.106 31.5368 258.95 32.2482 256.634C32.6473 255.332 33.5062 253.831 33.1592 252.738C32.8122 251.645 31.2072 251.116 30.1314 250.361C27.7369 248.678 27.7282 248.687 25.3684 250.456L25.0474 250.691C22.7917 252.426 22.731 252.955 24.362 255.358L19.2781 251.784C22.115 252.539 23.8502 250.578 25.7675 249.259C29.498 246.813 33.1852 244.297 36.8897 241.815C37.2801 241.555 37.7139 241.373 38.4514 240.948C38.4282 241.634 38.3615 242.318 38.2518 242.995C36.9794 248.201 35.6896 253.377 34.3825 258.525C33.9747 260.199 33.94 261.665 35.2153 262.975ZM33.6884 251.862L35.7012 243.707L35.4149 243.49L28.4743 248.149L33.6884 251.862Z" fill="black"/>
<path d="M75.2537 254.916L82.7495 255.705L82.9317 256.087C80.329 255.992 80.0253 257.675 79.8518 259.497C79.4961 263.192 79.071 266.888 78.802 270.593C78.6025 273.274 78.6893 273.282 80.7541 274.748L73.6834 274.028L73.4058 273.638C75.8089 273.864 75.9217 272.276 76.0605 270.792C76.477 266.524 76.85 262.247 77.2491 257.978C77.3619 256.746 77.0322 255.792 75.7048 255.419C75.5256 255.28 75.3728 255.109 75.2537 254.916V254.916Z" fill="black"/>
<path d="M146.568 11.8055C147.077 11.7973 147.582 11.8913 148.054 12.0817C148.526 12.2722 148.955 12.5554 149.316 12.9145C149.677 13.2736 149.962 13.7013 150.154 14.1724C150.347 14.6436 150.443 15.1485 150.437 15.6575C150.437 16.6849 150.029 17.6701 149.303 18.3966C148.576 19.1231 147.591 19.5312 146.564 19.5312C145.536 19.5312 144.551 19.1231 143.824 18.3966C143.098 17.6701 142.69 16.6849 142.69 15.6575C142.691 15.1498 142.792 14.6472 142.988 14.1787C143.183 13.7102 143.47 13.2848 143.83 12.927C144.19 12.5692 144.617 12.286 145.087 12.0935C145.557 11.9011 146.06 11.8032 146.568 11.8055V11.8055Z" fill="black"/>
<path d="M109.184 155.197C109.41 159.613 108.508 163.526 104.846 166.476C104.708 163.595 104.63 160.75 105.714 158.017C106.321 156.481 107.302 155.301 109.184 155.197Z" fill="black"/>
<path d="M65.1378 169.356C65.5976 175.186 64.3483 180.166 60.9822 180.227C59.9671 177.251 61.9365 172.046 65.1378 169.356Z" fill="black"/>
<path d="M157.317 15.0762C156.908 15.0904 156.501 15.0213 156.119 14.8732C155.738 14.7251 155.391 14.501 155.099 14.2146C154.807 13.9282 154.576 13.5854 154.42 13.2071C154.265 12.8287 154.188 12.4227 154.194 12.0137C154.191 11.2089 154.506 10.4355 155.069 9.86077C155.633 9.28604 156.4 8.95617 157.204 8.94249C158.032 8.93554 158.829 9.2565 159.42 9.83523C160.012 10.414 160.351 11.2034 160.362 12.031C160.353 12.8359 160.029 13.6052 159.46 14.1743C158.891 14.7435 158.122 15.0672 157.317 15.0762Z" fill="black"/>
<path d="M158.263 3.99733C158.258 4.53056 158.045 5.0408 157.669 5.41868C157.293 5.79655 156.783 6.01197 156.25 6.01876C155.974 6.02968 155.699 5.98359 155.442 5.88336C155.185 5.78314 154.952 5.63094 154.757 5.43631C154.561 5.24167 154.408 5.00878 154.307 4.75221C154.205 4.49565 154.158 4.22094 154.168 3.94527C154.172 3.68098 154.23 3.42024 154.336 3.17847C154.443 2.9367 154.597 2.7188 154.79 2.53764C154.982 2.35647 155.209 2.21573 155.457 2.12372C155.705 2.0317 155.969 1.99029 156.233 2.00192C156.766 1.99958 157.278 2.20797 157.658 2.58169C158.039 2.95542 158.256 3.46422 158.263 3.99733V3.99733Z" fill="black"/>
<defs>
<clipPath id="clip0">
<rect width="122" height="37" fill="white" transform="translate(45 295)"/>
</clipPath>
</defs>
</svg>
